<?xml version="1.0" standalone="no"?>
<svg xmlns:xlink="http://www.w3.org/1999/xlink" id="wave" style="transform:rotate(180deg); transition: 0.3s" viewBox="0 0 1440 320" version="1.1" xmlns="http://www.w3.org/2000/svg"><defs><linearGradient id="sw-gradient-0" x1="0" x2="0" y1="1" y2="0"><stop stop-color="rgba(243, 62, 185.008, 1)" offset="0%"/><stop stop-color="rgba(255, 179, 11, 1)" offset="100%"/></linearGradient></defs><path style="transform:translate(0, 0px); opacity:1" fill="url(#sw-gradient-0)" d="M0,224L21.8,208C43.6,192,87,160,131,154.7C174.5,149,218,171,262,181.3C305.5,192,349,192,393,160C436.4,128,480,64,524,64C567.3,64,611,128,655,149.3C698.2,171,742,149,785,133.3C829.1,117,873,107,916,122.7C960,139,1004,181,1047,186.7C1090.9,192,1135,160,1178,122.7C1221.8,85,1265,43,1309,42.7C1352.7,43,1396,85,1440,101.3C1483.6,117,1527,107,1571,122.7C1614.5,139,1658,181,1702,202.7C1745.5,224,1789,224,1833,208C1876.4,192,1920,160,1964,128C2007.3,96,2051,64,2095,85.3C2138.2,107,2182,181,2225,176C2269.1,171,2313,85,2356,48C2400,11,2444,21,2487,69.3C2530.9,117,2575,203,2618,245.3C2661.8,288,2705,288,2749,250.7C2792.7,213,2836,139,2880,106.7C2923.6,75,2967,85,3011,74.7C3054.5,64,3098,32,3120,16L3141.8,0L3141.8,320L3120,320C3098.2,320,3055,320,3011,320C2967.3,320,2924,320,2880,320C2836.4,320,2793,320,2749,320C2705.5,320,2662,320,2618,320C2574.5,320,2531,320,2487,320C2443.6,320,2400,320,2356,320C2312.7,320,2269,320,2225,320C2181.8,320,2138,320,2095,320C2050.9,320,2007,320,1964,320C1920,320,1876,320,1833,320C1789.1,320,1745,320,1702,320C1658.2,320,1615,320,1571,320C1527.3,320,1484,320,1440,320C1396.4,320,1353,320,1309,320C1265.5,320,1222,320,1178,320C1134.5,320,1091,320,1047,320C1003.6,320,960,320,916,320C872.7,320,829,320,785,320C741.8,320,698,320,655,320C610.9,320,567,320,524,320C480,320,436,320,393,320C349.1,320,305,320,262,320C218.2,320,175,320,131,320C87.3,320,44,320,22,320L0,320Z"/><defs><linearGradient id="sw-gradient-1" x1="0" x2="0" y1="1" y2="0"><stop stop-color="rgba(190.629, 243, 62, 1)" offset="0%"/><stop stop-color="rgba(11, 234.337, 255, 1)" offset="100%"/></linearGradient></defs><path style="transform:translate(0, 50px); opacity:0.9" fill="url(#sw-gradient-1)" d="M0,0L21.8,32C43.6,64,87,128,131,149.3C174.5,171,218,149,262,117.3C305.5,85,349,43,393,21.3C436.4,0,480,0,524,37.3C567.3,75,611,149,655,192C698.2,235,742,245,785,245.3C829.1,245,873,235,916,224C960,213,1004,203,1047,208C1090.9,213,1135,235,1178,218.7C1221.8,203,1265,149,1309,144C1352.7,139,1396,181,1440,186.7C1483.6,192,1527,160,1571,138.7C1614.5,117,1658,107,1702,85.3C1745.5,64,1789,32,1833,42.7C1876.4,53,1920,107,1964,133.3C2007.3,160,2051,160,2095,154.7C2138.2,149,2182,139,2225,154.7C2269.1,171,2313,213,2356,218.7C2400,224,2444,192,2487,149.3C2530.9,107,2575,53,2618,58.7C2661.8,64,2705,128,2749,160C2792.7,192,2836,192,2880,197.3C2923.6,203,2967,213,3011,224C3054.5,235,3098,245,3120,250.7L3141.8,256L3141.8,320L3120,320C3098.2,320,3055,320,3011,320C2967.3,320,2924,320,2880,320C2836.4,320,2793,320,2749,320C2705.5,320,2662,320,2618,320C2574.5,320,2531,320,2487,320C2443.6,320,2400,320,2356,320C2312.7,320,2269,320,2225,320C2181.8,320,2138,320,2095,320C2050.9,320,2007,320,1964,320C1920,320,1876,320,1833,320C1789.1,320,1745,320,1702,320C1658.2,320,1615,320,1571,320C1527.3,320,1484,320,1440,320C1396.4,320,1353,320,1309,320C1265.5,320,1222,320,1178,320C1134.5,320,1091,320,1047,320C1003.6,320,960,320,916,320C872.7,320,829,320,785,320C741.8,320,698,320,655,320C610.9,320,567,320,524,320C480,320,436,320,393,320C349.1,320,305,320,262,320C218.2,320,175,320,131,320C87.3,320,44,320,22,320L0,320Z"/><defs><linearGradient id="sw-gradient-2" x1="0" x2="0" y1="1" y2="0"><stop stop-color="rgba(243, 106, 62, 1)" offset="0%"/><stop stop-color="rgba(255, 226.416, 11, 1)" offset="100%"/></linearGradient></defs><path style="transform:translate(0, 100px); opacity:0.8" fill="url(#sw-gradient-2)" d="M0,96L21.8,128C43.6,160,87,224,131,224C174.5,224,218,160,262,154.7C305.5,149,349,203,393,197.3C436.4,192,480,128,524,112C567.3,96,611,128,655,122.7C698.2,117,742,75,785,64C829.1,53,873,75,916,85.3C960,96,1004,96,1047,122.7C1090.9,149,1135,203,1178,218.7C1221.8,235,1265,213,1309,197.3C1352.7,181,1396,171,1440,154.7C1483.6,139,1527,117,1571,122.7C1614.5,128,1658,160,1702,154.7C1745.5,149,1789,107,1833,80C1876.4,53,1920,43,1964,32C2007.3,21,2051,11,2095,42.7C2138.2,75,2182,149,2225,165.3C2269.1,181,2313,139,2356,133.3C2400,128,2444,160,2487,149.3C2530.9,139,2575,85,2618,64C2661.8,43,2705,53,2749,85.3C2792.7,117,2836,171,2880,181.3C2923.6,192,2967,160,3011,165.3C3054.5,171,3098,213,3120,234.7L3141.8,256L3141.8,320L3120,320C3098.2,320,3055,320,3011,320C2967.3,320,2924,320,2880,320C2836.4,320,2793,320,2749,320C2705.5,320,2662,320,2618,320C2574.5,320,2531,320,2487,320C2443.6,320,2400,320,2356,320C2312.7,320,2269,320,2225,320C2181.8,320,2138,320,2095,320C2050.9,320,2007,320,1964,320C1920,320,1876,320,1833,320C1789.1,320,1745,320,1702,320C1658.2,320,1615,320,1571,320C1527.3,320,1484,320,1440,320C1396.4,320,1353,320,1309,320C1265.5,320,1222,320,1178,320C1134.5,320,1091,320,1047,320C1003.6,320,960,320,916,320C872.7,320,829,320,785,320C741.8,320,698,320,655,320C610.9,320,567,320,524,320C480,320,436,320,393,320C349.1,320,305,320,262,320C218.2,320,175,320,131,320C87.3,320,44,320,22,320L0,320Z"/><defs><linearGradient id="sw-gradient-3" x1="0" x2="0" y1="1" y2="0"><stop stop-color="rgba(202.891, 62, 243, 1)" offset="0%"/><stop stop-color="rgba(143.073, 11, 255, 1)" offset="100%"/></linearGradient></defs><path style="transform:translate(0, 150px); opacity:0.7" fill="url(#sw-gradient-3)" d="M0,96L21.8,117.3C43.6,139,87,181,131,208C174.5,235,218,245,262,208C305.5,171,349,85,393,58.7C436.4,32,480,64,524,90.7C567.3,117,611,139,655,160C698.2,181,742,203,785,213.3C829.1,224,873,224,916,234.7C960,245,1004,267,1047,266.7C1090.9,267,1135,245,1178,218.7C1221.8,192,1265,160,1309,160C1352.7,160,1396,192,1440,213.3C1483.6,235,1527,245,1571,224C1614.5,203,1658,149,1702,122.7C1745.5,96,1789,96,1833,122.7C1876.4,149,1920,203,1964,186.7C2007.3,171,2051,85,2095,64C2138.2,43,2182,85,2225,90.7C2269.1,96,2313,64,2356,74.7C2400,85,2444,139,2487,170.7C2530.9,203,2575,213,2618,229.3C2661.8,245,2705,267,2749,250.7C2792.7,235,2836,181,2880,165.3C2923.6,149,2967,171,3011,160C3054.5,149,3098,107,3120,85.3L3141.8,64L3141.8,320L3120,320C3098.2,320,3055,320,3011,320C2967.3,320,2924,320,2880,320C2836.4,320,2793,320,2749,320C2705.5,320,2662,320,2618,320C2574.5,320,2531,320,2487,320C2443.6,320,2400,320,2356,320C2312.7,320,2269,320,2225,320C2181.8,320,2138,320,2095,320C2050.9,320,2007,320,1964,320C1920,320,1876,320,1833,320C1789.1,320,1745,320,1702,320C1658.2,320,1615,320,1571,320C1527.3,320,1484,320,1440,320C1396.4,320,1353,320,1309,320C1265.5,320,1222,320,1178,320C1134.5,320,1091,320,1047,320C1003.6,320,960,320,916,320C872.7,320,829,320,785,320C741.8,320,698,320,655,320C610.9,320,567,320,524,320C480,320,436,320,393,320C349.1,320,305,320,262,320C218.2,320,175,320,131,320C87.3,320,44,320,22,320L0,320Z"/></svg>