<?xml version="1.0" standalone="no"?>
<svg xmlns:xlink="http://www.w3.org/1999/xlink" id="wave" style="transform:rotate(180deg); transition: 0.3s" viewBox="0 0 1440 240" version="1.1" xmlns="http://www.w3.org/2000/svg"><defs><linearGradient id="sw-gradient-0" x1="0" x2="0" y1="1" y2="0"><stop stop-color="rgba(243, 178.877, 62, 1)" offset="0%"/><stop stop-color="rgba(250.523, 255, 11, 1)" offset="100%"/></linearGradient></defs><path style="transform:translate(0, 0px); opacity:1" fill="url(#sw-gradient-0)" d="M0,216L24,208C48,200,96,184,144,156C192,128,240,88,288,96C336,104,384,160,432,184C480,208,528,200,576,196C624,192,672,192,720,176C768,160,816,128,864,104C912,80,960,64,1008,60C1056,56,1104,64,1152,76C1200,88,1248,104,1296,128C1344,152,1392,184,1440,172C1488,160,1536,104,1584,72C1632,40,1680,32,1728,48C1776,64,1824,104,1872,108C1920,112,1968,80,2016,76C2064,72,2112,96,2160,108C2208,120,2256,120,2304,112C2352,104,2400,88,2448,104C2496,120,2544,168,2592,184C2640,200,2688,184,2736,184C2784,184,2832,200,2880,200C2928,200,2976,184,3024,172C3072,160,3120,152,3168,152C3216,152,3264,160,3312,144C3360,128,3408,88,3432,68L3456,48L3456,240L3432,240C3408,240,3360,240,3312,240C3264,240,3216,240,3168,240C3120,240,3072,240,3024,240C2976,240,2928,240,2880,240C2832,240,2784,240,2736,240C2688,240,2640,240,2592,240C2544,240,2496,240,2448,240C2400,240,2352,240,2304,240C2256,240,2208,240,2160,240C2112,240,2064,240,2016,240C1968,240,1920,240,1872,240C1824,240,1776,240,1728,240C1680,240,1632,240,1584,240C1536,240,1488,240,1440,240C1392,240,1344,240,1296,240C1248,240,1200,240,1152,240C1104,240,1056,240,1008,240C960,240,912,240,864,240C816,240,768,240,720,240C672,240,624,240,576,240C528,240,480,240,432,240C384,240,336,240,288,240C240,240,192,240,144,240C96,240,48,240,24,240L0,240Z"/><defs><linearGradient id="sw-gradient-1" x1="0" x2="0" y1="1" y2="0"><stop stop-color="rgba(178.366, 243, 62, 1)" offset="0%"/><stop stop-color="rgba(167.869, 255, 11, 1)" offset="100%"/></linearGradient></defs><path style="transform:translate(0, 50px); opacity:0.9" fill="url(#sw-gradient-1)" d="M0,24L24,48C48,72,96,120,144,140C192,160,240,152,288,156C336,160,384,176,432,164C480,152,528,112,576,96C624,80,672,88,720,96C768,104,816,112,864,132C912,152,960,184,1008,164C1056,144,1104,72,1152,68C1200,64,1248,128,1296,152C1344,176,1392,160,1440,156C1488,152,1536,160,1584,168C1632,176,1680,184,1728,156C1776,128,1824,64,1872,60C1920,56,1968,112,2016,112C2064,112,2112,56,2160,60C2208,64,2256,128,2304,156C2352,184,2400,176,2448,180C2496,184,2544,200,2592,176C2640,152,2688,88,2736,52C2784,16,2832,8,2880,16C2928,24,2976,48,3024,64C3072,80,3120,88,3168,96C3216,104,3264,112,3312,128C3360,144,3408,168,3432,180L3456,192L3456,240L3432,240C3408,240,3360,240,3312,240C3264,240,3216,240,3168,240C3120,240,3072,240,3024,240C2976,240,2928,240,2880,240C2832,240,2784,240,2736,240C2688,240,2640,240,2592,240C2544,240,2496,240,2448,240C2400,240,2352,240,2304,240C2256,240,2208,240,2160,240C2112,240,2064,240,2016,240C1968,240,1920,240,1872,240C1824,240,1776,240,1728,240C1680,240,1632,240,1584,240C1536,240,1488,240,1440,240C1392,240,1344,240,1296,240C1248,240,1200,240,1152,240C1104,240,1056,240,1008,240C960,240,912,240,864,240C816,240,768,240,720,240C672,240,624,240,576,240C528,240,480,240,432,240C384,240,336,240,288,240C240,240,192,240,144,240C96,240,48,240,24,240L0,240Z"/><defs><linearGradient id="sw-gradient-2" x1="0" x2="0" y1="1" y2="0"><stop stop-color="rgba(243, 197.271, 62, 1)" offset="0%"/><stop stop-color="rgba(255, 118.966, 11, 1)" offset="100%"/></linearGradient></defs><path style="transform:translate(0, 100px); opacity:0.8" fill="url(#sw-gradient-2)" d="M0,72L24,84C48,96,96,120,144,124C192,128,240,112,288,120C336,128,384,160,432,168C480,176,528,160,576,148C624,136,672,128,720,104C768,80,816,40,864,48C912,56,960,112,1008,148C1056,184,1104,200,1152,200C1200,200,1248,184,1296,176C1344,168,1392,168,1440,156C1488,144,1536,120,1584,112C1632,104,1680,112,1728,120C1776,128,1824,136,1872,152C1920,168,1968,192,2016,192C2064,192,2112,168,2160,156C2208,144,2256,144,2304,128C2352,112,2400,80,2448,80C2496,80,2544,112,2592,140C2640,168,2688,192,2736,196C2784,200,2832,184,2880,180C2928,176,2976,184,3024,184C3072,184,3120,176,3168,148C3216,120,3264,72,3312,72C3360,72,3408,120,3432,144L3456,168L3456,240L3432,240C3408,240,3360,240,3312,240C3264,240,3216,240,3168,240C3120,240,3072,240,3024,240C2976,240,2928,240,2880,240C2832,240,2784,240,2736,240C2688,240,2640,240,2592,240C2544,240,2496,240,2448,240C2400,240,2352,240,2304,240C2256,240,2208,240,2160,240C2112,240,2064,240,2016,240C1968,240,1920,240,1872,240C1824,240,1776,240,1728,240C1680,240,1632,240,1584,240C1536,240,1488,240,1440,240C1392,240,1344,240,1296,240C1248,240,1200,240,1152,240C1104,240,1056,240,1008,240C960,240,912,240,864,240C816,240,768,240,720,240C672,240,624,240,576,240C528,240,480,240,432,240C384,240,336,240,288,240C240,240,192,240,144,240C96,240,48,240,24,240L0,240Z"/></svg>